<svg version="1.1" id="Layer_1" xmlns="http://www.w3.org/2000/svg" xmlns:xlink="http://www.w3.org/1999/xlink" x="0px" y="0px"
	 viewBox="0 0 490 175" style="enable-background:new 0 0 2000 1500;" xml:space="preserve">
<g transform="translate(-450, -975)">
<path d="M920,1018.9c-5-4.4-7.5-5.8-12.7-8.3c-6.7-2.8-7.5-3.3-15.9-3.9c-56.3-3.8-154.8,0.3-155.7,0.3c-5,0-32.6-1.4-35.6-2.5
		c-3-0.8-6.5-3.2-9-5.1c-9.5-7.1-14.9-15.6-16.7-15.6c-1.8-0.4-7-0.4-12.1,0.8c-5.1,1.4-12.1,3.8-14.5,9c-1,2.1-0.7,2.5,1,3.9
		c3.7,3,10.1,9.4,11.8,14.5v0c-90.5,0-169.8,1.6-180.4,1.8c-0.1,0-0.2,0-0.3,0c-0.5,0-0.9,0-0.9,0c-0.2,0.1-0.3,0.1-0.5,0.2
		c-1.9,0.3-4,1.1-6.3,2.4c-3.8,2.1-7.3,5.5-10,13.5c-7.8,20.9-6.5,56.4,6.6,75.1c4.2,6,9.3,9,14.6,8.5c0.8,1.2,0.3-0.1,25.7-1.7
		c16.6-1.2,59.2-3.3,71.2-2.6c-3,3.1-8.8,10.5-10.3,15.5c-0.4,1.5-0.9,3.2-0.3,4.3c-0.3,1.8-0.5,5.6,4.9,10.6
		c1.6,1.3,2.5,1.8,3.8,2.4c3.2,1.2,7.8,2.2,11.2,2.4l0,0c8.4,0,16.4-2.6,20.3-8.4c0.9-0.6,1.7-2.6,4.3-7
		c3.3-5.8,10.6-17.6,11.8-18.5c3.3-3.3-3-3.8,137.8-5.6c36.8-0.4,134.5-1.3,139.1-2c1.3-0.4,6.5-3.1,11.4-7.6
		C934.3,1075.9,940.2,1039.5,920,1018.9z M663.6,1009.6c-0.1-0.3-0.2-0.5-0.3-0.8c-0.2-0.4-0.4-0.8-0.6-1.1c1.6-0.1,3.1-0.3,5.5-0.7
		c0.1,0,0.1,0,0.1-0.1c0.3,0,1.9-0.2,10.6-2.2c5.5-1.3,8.6-1.8,10.5-1.9c3.2,2.4,6.8,4.4,10.5,5.5c-10.2,2.3-24.7,3.5-34.4,1.7
		C664,1009.7,663.9,1009.5,663.6,1009.6z M673.2,987.3c0.4,0.2,1.2,1.2,2.5,2.6c-6.8,0.5-13,2.1-20.5,5.6c-1.1,0.5-1.7,0.8-2,0.9
		c-1-0.9-1.6-1.5-1.9-1.7C655,989,666.4,986.7,673.2,987.3z M654.4,997.5c1.4-0.6,4.6-2,14.1-4.5c4.3-1,6.9-1.5,8.5-1.6
		c1.4,1.5,3.1,3.4,5.1,5.3c-3.8,0.4-7.7,1.2-12.1,3.2l-0.5,0.9c1.2,0.6,0.2,0.6,4-0.2c0.1,0,0.1,0,0.1,0c0.3-0.1,1.2-0.3,3.7-0.9
		c1.8-0.4,3.5-1,6.3-1.5c1.2,1.1,2.5,2.3,3.9,3.4c-7.4,0.5-13.9,2.6-19.6,3.8l0,0c-3.3,0.7-5,1-5.9,1.1c-0.5-0.8-1-1.6-1.6-2.3
		c1.2-0.1,2.5-0.3,3.6-0.7c1.8-0.6,1.4-0.4,2.1-1.3l-0.8-0.6c-2.3,0-3.5,0-5.8,1.3l-0.1,0.1c-0.5-0.6-1-1.2-1.5-1.8
		c0.3-0.1,0.6-0.2,1.3-0.4c4.8-1.3,8.8-3,11.4-3.7l0.6-0.8l-0.8-0.6c-2.8,0.3-5.9,0.9-11.7,3.5c-1.3,0.6-1.5,0.6-1.7,0.9
		C656,999.1,655.2,998.3,654.4,997.5z M518,1015.8c107.8-1.2,138.3,0.3,144.8-0.7l0.5,0.7c6.3,1.4,10.3,1.6,15.7,1.4
		c5.1-0.1,4.2,0,5.1-0.8c-1-0.9-0.1-0.7-5.1-1c-5.7-0.4-12-0.6-14.7-0.9c0.4-0.9,0.3-2.1-0.1-3.3c7.9,2.8,23.4,1.7,31.9-0.2l0,0
		c2.1-0.5,5.3-1.4,7.5-2.1c2.9,0.3,7.1,0.6,11.6,1c-6.7,1.8-18.2,3.7-23.1,4l-0.7,0.7l0.7,0.7c8,0.5,16.5-1.4,24.1-4.2l0.5-0.9
		l-0.5-0.2c8.3,0.6,17.4,1.1,21.7,0.9c5.5,0,6.2-0.8,44.3-1.3c10.1-0.1,93.2-1,114,1.9c-2.1,0-4.6-0.1-7.8-0.1
		c-57.9-1-102.9-1.7-160.7,1.6c-10.1,0.6-8.5,0.3-9.4,1.3c1.3,1.1-3.2,0.5,32.8-0.7c68.9-1.9,132.7-0.1,150.6-0.7
		c5.4,2.1,10,4.5,13.7,7.6c-20.8-1.6-37.9-1.2-53.9-2.4l-0.8,0.6l0.6,0.8c16.7,2.2,40.4,1.9,54.9,2.6c0.4,0,0.6,0,0.9,0
		c2.8,2.7,5,5.7,6.7,9.3c-6.2-0.4-8.5-0.7-15.8-0.2c-1.1,0.1-0.7-0.1-1.6,0.8c0.9,0.9,0.5,0.7,1.6,0.7c2.5,0.1,6.9,0.7,16.5,0.2
		c1.5,3.6,2.6,7.8,3.1,12.5c0.4,3.5,0.6,6.5,0.4,9.9c-0.8,0-2,0.1-4.2,0.1c-16.9-0.3-25.6-1.4-36.8-1.4c-23.4,0-93.6,4.7-126.7,5.1
		c-36.1,0.4-55.4-1.4-94.8,1.9c-90.6,8.4-87.6,3.1-150.5,7.4c-9.8,0.7-9.2,0.6-9.6,1.3c-0.3-8.8-1.3-18.4-3.5-27.4
		c1.3,0.3,6.5,0.5,30,1c12,0.2,13.3,0.2,27.4,0.2c29.3-0.3,25.8-0.1,26.8-1.1c-1.2-1.2,4.8-0.5-54.7-1.2c-26.9,0-29.1-0.5-29.7,0
		c-1.2-4.8-2.8-9.3-4.8-13.3c1.7,0,4.6,0,10,0.1c11.9,0.1,20.3,0.1,30.3,0c37.8-0.9,33.5-0.5,34.6-1.5c-1.3-1.2,2.8-0.6-34.7-0.6
		c-10.7,0.1-23.2,0.3-30.3,0.4c-6.3,0.1-9.3,0.1-10.7,0.2c-1.3-2.4-2.7-4.6-4.3-6.5c18.7,0.9,41.9-1.2,61.4-1.7
		c22.1-0.5,61.9,1.8,103.2,0.6c2.7-0.1,2.1,0.1,2.9-0.8c-1.6-1.5,4,0.2-48.5-1c-97-2.7-52.3,0.9-111.6,1.6c-5,0-7.4-0.1-8.6-0.1
		c-0.9-0.8-1.7-1.6-2.6-2.2C494,1016.2,503.3,1016,518,1015.8z M478.8,1108.3c-5.5-2.2-9.7-10.8-11.9-16.3
		c-6.6-17.3-8.2-41.2-1.7-61.2c2-5.9,3.4-8.3,6.5-10.6c3.1-2.1,7.9-4,10.5-3.4l0,0c0.1,0,0.1,0,0.2,0c-0.9,0,2.6-0.1,6.3,4.1
		c13.3,15.1,16.1,56.9,10,73C495.8,1101.8,485.9,1112.4,478.8,1108.3z M601.3,1138.4c-4,1.5-9.5,1.9-12.7,1.5
		c-2.2-0.2-7.4-1.2-8.3-1.5c-1.5-0.5-3.2-1.6-4.1-2.4c-2-1.8-3.6-3.8-3.6-6l0,0c0-0.1,0-0.1,0-0.2l0,0c0-0.1,0-0.1,0-0.2l0,0
		c0-0.1,0-0.1,0-0.1l0,0v0l0,0c0,0,0-0.1,0-0.1c0-0.1,0,0,0-0.1v0c0,0,0,0,0,0c0,0,0,0,0,0c0,0,0.1-0.3,0.1-0.3v0l0,0
		c0.3-1.6,2.3-4.2,3.8-5.5c2.2-1.7,3-2.3,6.7-3.6c6.5-1.8,13.9-2,19.9,1.1c0.6,0.4,0.7,0.4,0.8,0.5c0.4,0.3,0.3,0.1,1.2,0.9
		c3.1,2.6,3.6,4.7,4,7.5c0,0.8-0.2,1.6-0.3,2.2C607.5,1134.2,604.7,1137.1,601.3,1138.4z M925.4,1069.1c-0.8-0.1-3.3,0.3-13.8,0.3
		c-6.5,0-19.9-0.5-31.4-0.2c-8.4,0.1-7.3,0-8.1,0.9c1,1,0.2,0.6,3.6,0.7c12.6,0,28,1.4,49.3-0.3c-0.8,2.4-1.8,4.8-2.9,7.1
		c-1.3,0.1-3.9,0.2-9.6,0.5c-54.3,1.9-199.9,0-201.6,1.6c0.8,0.9-0.9,0.8,11.8,1c41.7,0.7,179.1,0.9,198.8-1.9
		c-2,3.8-4.4,7.3-7.2,10.5c-1.6-0.1-7,0.6-31.1,1.1c-9.2,0.3-35.7,0.6-37.8,0.5c-71,1-64.6,0.3-65.8,1.5c1.1,1-2.7,0.6,25.9,0.7
		c56.8,0.2,97.8-1.2,107.7-2.7c-1.5,1.6-3.1,3-4.8,4.3c-1.2,0.1-3,0.3-5.7,0.4c-11.8,0.7-2.7-0.2-151.1,1.8
		c-34.2,0.5-64.1,2.1-112.6,3c-5.9,0.1-4.9-0.1-5.8,0.8c1.7,1.7,57.3-0.5,98.1-1.3c110.5-1.9,159.3-1.7,174.8-3.1
		c-4,2.7-4.1,2.3-7.2,2.4c-29.4,1.4-235.4,1.9-268.1,5.9c-0.2-0.2-0.4-0.3-1.5-0.7c-4.1-1.6-6.1-2.9-11-4
		c-9.7-1.9-19.4-1.1-33.1,5.7l-0.3,0.9c1.8,0.6-0.9,0.5,9.5-2.9c18.1-5.4,27.8-0.9,33.8,1.4c-0.7,0.1-1.2,0.3-1.5,0.4
		c-0.4,0.2-0.7,0.5-1.1,0.8c-0.2-0.4-0.4-0.4-1.9-0.8h0c-1.8-0.5-2.6-0.6-4.4-0.6c-2.5,0-2-0.1-3,0.6c1,1,0.2,0.7,3.5,1.4
		c1,0.2,3.2,0.5,4.5,0.5c-0.8,0.8-1.6,1.7-2.3,2.7c-0.8-0.3-2.1-0.7-4.8-1.6c-1.2-0.4-7-2.2-11.2-2.2l-0.8,0.6c0.8,1,0.3,0.7,1.8,1
		c1.3,0.2,4.6,1.2,9.6,2.6c2.2,0.5,3.5,0.8,4.4,1c-0.4,0.5-0.7,1.1-1.1,1.6c-0.1,0.2-0.6,0.9-1.1,1.8c-1-0.6-1.8-1.1-6.2-3.2h0
		c-2.8-1.1-5.3-2-9-2.3l-0.8,0.6l0.6,0.8c1.1,0.2,2.1,0.5,3.2,0.9h0c2,0.6,3.6,1.4,5.1,2l0,0c3.3,1.3,5.1,2.1,6.2,2.6
		c-2,3.3-5,8-5.8,9.7c-0.1-0.3-0.4-1.3-0.7-1.8c-5.2-9.9-17.5-10.6-28.4-8.2c-4.7,1.4-5.2,2.4-6.1,2.7c1.1-1.6,2.1-2.9,3-4.1
		c1-0.2,2.4-0.5,4.4-0.8c7.9-1,14-0.1,22.1,3.6c2.6,1.2,3.9,1.6,5.9,3.2c1.8,1.6,0.7,1.2,2.2,1.4l0.2-1c-2.3-3.6-12-7.7-15.7-8.6
		l0,0c-5.3-1.3-10.5-1.6-17.3,0.2c3.1-3.5,4.4-4,3.4-5.7c-2.2-2.5-41-0.1-54.9,0.5c-22,1.3-33,2.2-38.7,2.8c1-0.7,1.9-1.4,2.8-2.3
		c1.2,0,3.9-0.1,10-0.4c15.1-0.8,41.6-2.9,60.8-3.9c15.5-0.9,13.4,0.1,14.8-1.2c-0.9-0.9,0.2-0.7-5.4-0.7
		c-19.8,0.2-38.6,1.4-58.2,3.1c-12.1,1-17.7,1.3-20.4,1.5c0.1-0.1,0.1-0.1,0.2-0.2c0.9-1,1.7-2,2.4-3c10.2,0.9,15.6-0.7,43.1-2.2
		c36.3-2.1,33-1.4,34.2-2.7c-1.1-0.9,0.2-0.7-5.8-0.4c-63.8,2.4-33.2,1.4-61,3.7c-2.1,0.2-5.6,0.3-7.8,0.3c-0.7,0-1.2,0-1.7,0
		c0.9-1.3,1.6-2.6,2.3-4c0.8,0,2.7-0.1,7.3-0.2c1.7,0,73.4-1.8,75.3-3.9c-1.1-1,4.5-0.8-43.2,0.8c-26.9,1.1-35.7,1.5-38.7,1.9
		c0.8-2,1.5-4.3,2.1-6.9c0.3,0,0.9,0,1.7,0c87.3,0.8,89.5-3.6,133.4-5.5l0.7-0.7l-0.7-0.7c-26.1,0.8-51.1,3.9-86.8,4.8
		c-36.2,1-45.4,0.6-48,0.7c0.4-2.2,0.7-4.7,0.9-7.5c21.7,0.6,30.1,0.2,48.4-0.7c13.7-0.9,11.7-0.3,12.8-1.4c-1-0.9,1-0.7-12.9-0.4
		c-2.4,0.1-19.8,0.4-19.9,0.4c-18.5,0.5-25.5,0.5-28.4,0.6c0-0.6,0.1-1.2,0.1-1.8c0.1-2.4,0.1-4.8,0-7.4c1.7,1.5-3.4-0.8,60.8-1.8
		c95.6-1.4,93.4-7.1,143.4-7.1c48.1-0.5,30.1,2,124.1-3.2c79.8-4.4,56.5-1.1,90-1.1c2,0,3.3,0,4.1,0c-0.1,0.6-0.1,1.2-0.2,1.9
		C927.3,1062.2,926.5,1065.7,925.4,1069.1z"/>
	<path d="M624.5,1092.9c-7.2-2.6-13.9-2.8-20.3-2.3c-5.8,0.7-5.2,0.7-5.8,1.6c1.1,0.8,0.1,0.6,4.1,0.2c12.9-0.8,18.5,1.8,20.2,1.8
		c7,1.8,5.4,2.3,7.2,1.6C629.4,1094.9,630,1094.9,624.5,1092.9z"/>
	<path d="M590.8,1092.6c-1.7,0.3-2.9,0.6-5.8,1.7l0,0c-2.3,1-4.6,2.6-7,3.8l-0.4,0.9c1.1,0.4,0.6,0.5,3-0.5c1.8-0.7,7.8-3.5,9-3.9h0
		c3.9-1.5,2.6-0.2,3.7-1.7C592.3,1092.2,592.9,1092.3,590.8,1092.6z"/>
	<path d="M757.4,1092.2c-37.5,1.4-120.4,0.5-123.2,3.6c1.4,1.3,7-0.1,38.7-0.3c0.9,0,98.7-0.2,101.6-3.5
		C773.1,1090.9,775.9,1091.5,757.4,1092.2z"/>
	<polygon points="482.7,1062.9 482.7,1062.9 482.7,1062.9 482.7,1062.9 482.7,1062.9 482.7,1062.9 482.7,1062.9 482.7,1062.9 	"/>
	<polygon points="482.7,1062.9 482.7,1062.9 482.7,1062.9 482.7,1062.9 	"/>
	<polygon points="482.7,1062.9 482.7,1062.9 482.7,1062.9 	"/>
	<path d="M476.3,1065.7L476.3,1065.7C476.3,1065.7,476.3,1065.7,476.3,1065.7L476.3,1065.7L476.3,1065.7c2.3,4.7,2.1,11.8,4.6,11.4
		c1.1-0.4,0.9-1.3,1-2.7c0.2-6.2-0.3-8.6,0.9-11.5l0,0l0,0l0,0l0,0l0,0l0,0l0,0l0,0l0,0l0,0v0l0,0l0,0l0,0l0,0v0l0,0l0,0l0,0l0,0
		l0,0l0,0l0,0v0c0,0,0,0,0,0l0,0l0,0c0,0,0,0,0,0l0,0l0,0c0.7-1.1,1.8-1.5,1-3.4c-0.5-1-3.2-4.8-4-8.4l-0.7-0.5l0,0h0l-0.1-0.1
		l-0.2,0.3l-0.6,0.3c-0.7,2.5-1.4,5.1-2.7,7.5l0,0l0,0c0,0,0,0,0,0l0,0l0,0l0,0l0,0c0,0,0,0,0,0l0,0c-1.9,2.7-2.6,2.6,0,5.9
		C475.7,1064.9,476.1,1065.3,476.3,1065.7z M475.7,1061.5c0-0.1,0,0,0.1-0.1c1.3-2.4,1,0,3.3-7.7c2.3,6,2.6,4.8,3.2,6.6l0,0
		c0,0.1,0,0,0,0.1l0,0c0,0.1,0,0,0,0.1l0,0c0,0,0,0,0,0.1c0,0,0,0,0,0l0,0c0,0,0,0,0,0c0,0,0,0,0,0.1l0,0l0,0c0,0,0,0,0,0l0,0
		c0,0,0,0,0,0c0,0,0,0,0,0l0,0c-0.7,0.9-1,0.8-1.4,2.1c-0.8,2.1-0.8,4.2-0.9,6.4c-0.1,1.7,0-0.7-1.7-4.2c-0.4-0.7-2.2-2.8-2.4-3.3
		l0,0l0,0C475.7,1061.6,475.7,1061.6,475.7,1061.5l0,0.1C475.7,1061.5,475.7,1061.5,475.7,1061.5L475.7,1061.5
		C475.7,1061.5,475.7,1061.5,475.7,1061.5L475.7,1061.5z"/>
	<polygon points="482.7,1062.9 482.7,1062.9 482.7,1062.9 	"/>
	<polygon points="482.7,1062.9 482.7,1062.9 482.7,1062.9 482.7,1062.9 	"/>
	<polygon points="482.7,1062.9 482.7,1062.9 482.7,1062.9 	"/>
	<polygon points="482.7,1062.9 482.7,1062.9 482.7,1062.9 482.7,1062.9 482.7,1062.9 	"/>
	<path d="M481.9,1083.5c6.4-0.7,4.9-13.9,5.7-13.9c0.7-6,3.6-10.7-0.1-17.1c-2.5-4.1-7.2-8.7-9.2-8.7c-1.5,0-2.2,1.2-2.6,2.7
		l0.1,0.2l-0.3,0.2c-0.6,2.9-0.7,5.6-1.9,7.9c-1.3,2.5-4.8,4-4.4,7.9c0.3,2.8,2.2,4.5,3.3,6.4
		C474.8,1073.4,475.2,1084.2,481.9,1083.5z M475.8,1053.6c0.7-2.2,0.8-4.3,1.1-6.5l-0.1-0.1l0.2-0.1c0-0.1,0-0.2,0.1-0.2
		c0.1-0.3,0.2-0.6,0.4-0.8l0,0c0,0,0,0,0-0.1l0,0c0,0,0,0,0-0.1l0,0c0,0,0,0,0-0.1l0,0c0,0,0,0,0-0.1l0,0c0,0,0,0,0-0.1l0,0
		c0,0,0,0,0,0l0,0c0,0,0,0,0,0l0,0c0,0,0,0,0,0l0,0l0,0l0,0l0,0l0,0l0,0l0,0l0,0l0,0l0,0c0,0,0,0,0,0l0,0c0,0,0.1,0,0.1,0h0
		c0,0,0,0,0,0h0l0,0h0l0,0c0,0,0,0,0,0l0,0c0,0,0,0,0,0c0,0,0,0,0,0c0,0,0,0,0,0c0,0,0,0,0,0c0,0,0,0,0,0c0,0,0,0,0,0c0,0,0,0,0,0
		l0,0h0h0h0l0,0h0l0,0h0c0,0,0,0,0.1,0l0,0c0,0,0,0,0.1,0h0c0,0,0,0,0.1,0h0l0,0l0,0l0,0l0,0l0,0h0l0,0c2.2,1.1,6.3,6.2,7.4,8.2
		c2.5,4.7,1,8.1-0.2,13.6c-0.6,3-0.8,15.9-5.2,14.1c-0.1,0-0.1,0-0.1,0l0,0l0,0l0,0l0,0c-0.1,0-0.1,0-0.1,0l0,0
		c-0.1,0-0.1-0.1-0.2-0.1l0,0c-2.4-1.1-3.8-7.3-4.7-10c-0.8-2.4-1.3-3.1-2.5-4.8C467.9,1059.4,473.8,1060.1,475.8,1053.6z"/>
	<path d="M492.7,1052.1L492.7,1052.1c-0.1-0.4-0.2-0.7-0.3-1c0.1-0.3,0-0.9-0.3-3.1c-1.3-9.1-2.3-10.2-3.8-13.1
		c-1.8-3.7-1.5-10.8-7.2-12l0,0c-3.6-0.5-6.4,1-8.6,3.5c-5.2,5.8-3.4,22.5-5.8,28.7l0.1,0.3c-1.9,2.6-3,6.4-0.4,14.6
		c0.7,2.1,1.4,4,2.1,6.2c0,0.3,0.1,0.6,0.2,1c2.2,13.6,4.5,14,6,17.4c1.6,3.9,2.1,7.1,6.7,7.1c8-0.8,10.7-8.4,10.6-16.7
		c0.3-0.8,0.6-1.6,0.8-2.5c0.8-4.2,0.1-8,0.1-12.2C492.9,1064.4,494,1058.1,492.7,1052.1z M471,1036.9c0.5-4.2,1-7.7,4.3-10.4
		c1.5-1.1,3.4-2,5.3-1.6l0,0c0.1,0,0.4,0.1,0.5,0.1c0.1,0,0.1,0,0.2,0.1c0.3,0.1,0.8,0.4,1.2,0.8c1.3,1,2,3.4,2.6,5.8
		c1.9,7.2,2.9,3.4,5,13.9c0.1,0.4,0.1,0.7,0.2,1c-0.9-1.3-1.9-2.1-2.9-3.2c-4.8-4.8-11.3-9.4-13.3-3l0.1,0.1
		c-0.9,2.7-1.3,7-3.6,10.6c-0.6,0.8-1.3,1.5-2,2.3C469.7,1048.2,471,1037.7,471,1036.9z M467.4,1057.8c1.2-2.4,3.1-3.6,4.7-6.1
		c2-3.5,2.4-6.9,3.6-11.4l0,0c2.4-4.5,11.3,4.1,13.4,7.6c0.9,1.5,1.5,3.1,1.8,4.7h0c1.1,5.4,0.1,11.2-0.1,16.7
		c-0.2,5.1,0.5,8.9-0.1,12.4c-0.4,0.5-0.4,0.6-0.3,1.3c-0.5,1.8-1.4,3.4-3.1,5.1c-4.1,3.7-8.1,1.5-9,1.1c-3.7-2.6-4.9-4.6-7.7-12.9
		C469,1071.3,465.2,1062.9,467.4,1057.8z M485.2,1098.2c-5.4,3.1-6.7,0.6-8-2.9c-1.6-4.2-2.9-4.4-4.6-9.1c1.4,2.2,3.2,4.1,5.5,5.1
		c5,2.2,9.5,0.1,12.1-3.5C489.8,1091.9,488.6,1096.1,485.2,1098.2z"/>
	<path d="M499.8,1074.6c0.2-8.9,0.9-13.5-1.2-22.3c-0.6-2.8-5.4-19-6.2-20.8c-1.3-3-5-9.1-7.7-11.1c-3.1-2.5-6-2.4-9.1-0.7
		c-1.6,1-3,1.6-4.1,2.5c-1.8,1.4-4.2,6.5-4.8,8.4c-4.6,14.3-7.1,30.1-1.7,51.4c2.6,9.6,5.9,20.4,14.1,24.7c2.3,1,4.8,1.6,7,0.3
		c0.9-0.5,4.5-4,5-4.5c3.3-3.4,5.2-7.6,6.8-12C499.9,1084.9,499.7,1080.7,499.8,1074.6z M495.5,1091c-2,5.2-4.4,9.3-9.9,13.8
		c-1.7,1.4-4,0.9-5.9-0.1c-6.8-2.9-11.3-17-13.1-24.2c-4.1-16.6-3.5-31.8-0.5-42.5c1.9-6.6,2.2-7.7,2.8-9c1.6-3,2.2-4.4,3.6-5.6
		c1.2-0.8,4.5-2.6,5.2-2.9c2.6-1,5.1,0.3,6.3,1.5c2.9,2.4,6.1,8.4,7.1,10.9c0.3,0.9,5.1,17,5.9,21.3c1.7,8.6,0.8,13,0.6,22.5
		C497.6,1083.1,497.5,1085.7,495.5,1091z"/>
	<path d="M912.1,1085.5c5.8-0.4,4.7-0.1,5.6-1.1c-0.9-0.9,0.1-0.7-5.7-0.7c-8.4,0-11,0.4-21.4,1.1l-0.7,0.7l0.7,0.7
		C896.9,1086.2,902.9,1086.3,912.1,1085.5z"/>
	<path d="M617.2,1090.5c2.5,2.4,153.7-4.1,196.8-3.7c3.3,0,60.6,1.1,62.6-1.1c-1.5-1.4,0.3-0.2-22.1-0.2c-75.4,0-6.2-2.7-162.5,2.3
		C611.1,1090.4,618.5,1089.1,617.2,1090.5z"/>
	<path d="M651.8,1082.2c0.9,0.8-0.9,0.9,15.7,0.4c12.2-0.4,16-0.8,26.9-1.2c7-0.3,5.7,0.1,6.7-0.9c-0.9-0.9,0.2-0.7-6.7-0.8
		c-8.7,0-16.8,0.2-27,0.9C650.1,1081.7,652.7,1081.2,651.8,1082.2z"/>
	<path d="M687.5,1072c-1.1-1,4.7-1.2-58.8,2.3l0,0c-60.2,3.5-53.8,1.8-55.2,3.2c0.9,0.9-0.1,0.7,6,0.7c29.5-0.2,51.3-1.9,77.5-3.6
		C690.4,1072.2,686.3,1073.3,687.5,1072z"/>
	<path d="M699.2,1071.4c1,1-1.1,0.7,15.3,0.8c47.4,0.1,76-0.4,121.2-1.3c31.2-0.7,27.4-0.2,28.5-1.3
		C862.7,1068.2,700.1,1070.5,699.2,1071.4z"/>
	<path d="M589.4,1023.5c-9.2,1.1-7.8,0.9-8.5,1.8c1.4,1-0.8,0.5,8.7-0.4c20.8-2,40.8,0.3,61.6,0.5c33,0.4,67.4-5,99-5
		c30.5,0,93.9,2.4,96.4-0.2c-1.2-1.1,1.6-0.5-14.9-0.4c-37.7,0-51.8-1.5-81.5-1.5c-30-0.3-64.2,5.1-99,5.1
		C626.5,1023.3,611.2,1021.5,589.4,1023.5z"/>
	<path d="M607.9,1040c-2.2,0.5-1.6,0.1-2.4,1.1c0.9,0.8,0.2,0.6,2.6,0.7c1.8,0,3.1-0.1,4.9-0.4c3.6-0.6,2.8-0.4,3.7-1.3
		c-0.9-0.7-0.5-0.6-1.4-0.6C612.5,1039.4,611,1039.4,607.9,1040z"/>
	<path d="M686.2,1037.6c-24-0.9-28.1-0.2-36.6-0.2l-0.7,0.7l0.7,0.7c19.6,0.7,24.4,0.4,36.6,0.3c4.5,0,3.5,0.2,4.5-0.7
		C689.8,1037.6,690.7,1037.8,686.2,1037.6z"/>
	<path d="M731.6,1036.2c-6.9,0-7.2,0.4-8.7,0.4c-4.2,0.5-3.2,0-4.2,1c0.9,0.9,0.2,0.7,4.3,0.8c4,0,3.8,0.1,8.7-0.4
		c4.8-0.4,3.9-0.3,4.8-1.1C735.5,1036.1,736.5,1036.2,731.6,1036.2z"/>
	<path d="M774.8,1033.9c-2.5,0.3-1.9,0-2.8,0.9c0.9,0.9,0.3,0.6,2.8,0.9c2.7,0.2,3.2,0.2,5.6,0c2.2-0.2,1.6,0,2.7-0.9
		c-1.1-0.9-0.5-0.7-2.7-0.9C778,1033.7,777.4,1033.6,774.8,1033.9z"/>
	<path d="M823.4,1032.8c1,0.9-0.5,0.7,8.5,0.8c18.9,0.1,15.9,0.1,31.8-0.1c25.9-0.5,22.3-0.1,23.4-1.1c-0.9-0.9,1.7-0.9-23.5-0.9
		c-13.4,0-18.4,0.2-31.8,0.5C822.9,1032.1,824.3,1031.8,823.4,1032.8z"/>
	<path d="M673.6,1000.5C673.2,1000.6,673.8,1000.5,673.6,1000.5L673.6,1000.5z"/>
	<path d="M592,1126.6l-0.2,0.1l-0.5-0.4c-7.8,0-5.4,9.2,2.2,6.2l0,0C597.2,1130.5,596,1126.6,592,1126.6z M593.9,1129.3
		L593.9,1129.3C593.9,1129.3,593.9,1129.3,593.9,1129.3L593.9,1129.3C593.9,1129.4,593.9,1129.4,593.9,1129.3c0,0.1,0,0.1,0,0.1l0,0
		c0,0.1,0,0,0,0.1l0,0c0,0,0,0,0,0.1l0,0c0,0.1,0,0,0,0.1l0,0c0,0,0,0,0,0.1c0,0,0,0,0,0l0,0c0,0,0,0,0,0c0,0,0,0,0,0.1l0,0
		c0,0.1,0,0,0,0.1l0,0c0,0,0,0,0,0.1c0,0,0,0,0,0l0,0c0,0,0,0,0,0c0,0,0,0,0,0.1l0,0c0,0.1,0,0-0.1,0.1l0,0c0,0,0,0-0.1,0.1l0,0
		c0,0.1,0,0-0.1,0.1l0,0c0,0,0,0-0.1,0.1c0,0,0,0,0,0l0,0c0,0,0,0,0,0c-0.2,0.2-0.4,0.3-0.8,0.5h0c-0.9,0.4-2.7,0.4-3.7-0.2l0,0
		c-0.1,0,0,0-0.1-0.1l0,0c-0.1,0,0,0-0.1-0.1l0,0c-0.1,0,0,0-0.1-0.1l0,0c0,0-0.1,0-0.1-0.1l0,0c0,0,0,0-0.1-0.1c0,0,0,0,0,0l0,0
		c0,0,0,0,0,0c0,0,0,0-0.1-0.1l0,0c0,0,0,0-0.1-0.1l0,0c0,0,0,0-0.1-0.1l0,0c0,0,0,0,0-0.1l0,0c0,0,0,0,0-0.1l0,0c0,0,0,0,0-0.1l0,0
		c0-0.1,0,0,0-0.1l0,0c0,0,0,0,0-0.1l0,0c0,0,0,0,0-0.1l0,0c0,0,0,0,0-0.1l0,0c0,0,0,0,0-0.1l0,0c0-0.1,0,0,0-0.1l0,0c0,0,0,0,0-0.1
		l0,0c0-0.1,0,0,0-0.1l0,0c0-0.1,0,0,0-0.1l0,0c0-0.1,0,0,0-0.1l0,0c0-0.1,0,0,0-0.1l0,0c0-0.1,0,0,0-0.1l0,0c0,0,0,0,0-0.1
		c0,0,0,0,0,0l0,0c0,0,0,0,0,0c0,0,0,0,0-0.1l0,0c0,0,0,0,0-0.1l0,0c0-0.1,0,0,0.1-0.1l0,0c0-0.1,0,0,0.1-0.1l0,0c0-0.1,0,0,0.1-0.1
		l0,0c0-0.1,0,0,0.1-0.1c0,0,0.1-0.1,0.1-0.2c0.9-0.9,2.4-0.9,2.6-1.2l0.3,0.4c0.9,0.1,1.1,0.3,1.6,0.5l0,0c0.1,0,0,0,0.1,0.1
		c0,0,0,0,0,0l0,0c0,0,0,0,0,0c0,0,0,0,0.1,0.1l0,0c0.1,0.1,0,0,0.1,0.1l0,0c0,0,0,0,0.1,0.1l0,0c0,0,0,0,0.1,0.1l0,0c0,0,0,0,0,0
		c0,0,0,0,0,0.1l0,0c0,0,0,0,0,0.1c0,0,0,0,0,0l0,0c0,0,0,0,0,0c0,0,0,0,0,0.1l0,0c0,0.1,0,0,0,0.1l0,0c0,0,0,0,0,0.1l0,0
		c0,0,0,0,0,0.1l0,0C593.9,1129.2,593.9,1129.2,593.9,1129.3l0-0.1C593.9,1129.3,593.9,1129.2,593.9,1129.3L593.9,1129.3
		C593.9,1129.3,593.9,1129.3,593.9,1129.3z"/>
	<path d="M587.2,1121.3l-0.1,0.2c-7.7,2.3-14.3,7.6-8,12.6c4.6,4.1,14.7,3.5,20.6,1.9h0c2.1-0.6,4-1.4,5.5-3.1h0
		C610.9,1125.7,600.7,1117.4,587.2,1121.3z M603.6,1131.6L603.6,1131.6c-1.3,1.4-2.7,2-4.4,2.4h0c-5.8,1.4-13.9,2.1-18.7-1.3
		c-2.6-1.9-2.6-3.6-0.6-5.5c2-2,6.5-4.1,9.4-4.9l0-0.1C598,1120.3,608.6,1125.5,603.6,1131.6z"/>
	<path d="M599.7,1110.4l0.7-0.7l-0.7-0.7c-2.7-0.6-4.1-0.4-5.7-0.1c-1.3,0.3-0.9,0.1-1.7,1c1,0.8,0.5,0.6,1.8,0.7
		C595.6,1110.7,597.5,1110.8,599.7,1110.4z"/>
        </g>
        </svg>